<svg xmlns="http://www.w3.org/2000/svg" width="800" height="480" viewBox="0 0 800 480"><defs><linearGradient id="stickyYellow" x1="0" x2="0" y1="0" y2="1"><stop offset="0%" stop-color="#FEF9C3"/><stop offset="100%" stop-color="#FEF3C7"/></linearGradient><linearGradient id="stickyPink" x1="0" x2="0" y1="0" y2="1"><stop offset="0%" stop-color="#FCE7F3"/><stop offset="100%" stop-color="#FBCFE8"/></linearGradient><linearGradient id="stickyBlue" x1="0" x2="0" y1="0" y2="1"><stop offset="0%" stop-color="#DBEAFE"/><stop offset="100%" stop-color="#BFDBFE"/></linearGradient></defs><rect width="800" height="480" fill="#F8FAFB" rx="12"/><circle cx="46" cy="28" r="16" fill="#0D9488"/><text x="46" y="33" fill="#fff" font-family="Arial, Helvetica, sans-serif" font-size="14" font-weight="bold" text-anchor="middle">3</text><text x="72" y="33" fill="#334155" font-family="Arial, Helvetica, sans-serif" font-size="15" font-weight="bold">Sketch your ideas on the whiteboard</text><g transform="translate(30, 52)"><rect width="740" height="390" fill="#fff" stroke="#D1D5DB" stroke-width="1.5" rx="10"/><rect width="740" height="38" fill="#F1F5F9" rx="10"/><rect width="740" height="10" x="0" y="28" fill="#F1F5F9"/><circle cx="18" cy="19" r="5.5" fill="#FF5F57"/><circle cx="36" cy="19" r="5.5" fill="#FFBD2E"/><circle cx="54" cy="19" r="5.5" fill="#28C840"/><rect width="580" height="22" x="80" y="8" fill="#fff" stroke="#E2E8F0" stroke-width="1" rx="6"/><text x="96" y="23" fill="#94A3B8" font-family="Arial, Helvetica, sans-serif" font-size="11">napkin.html</text><rect width="738" height="351" x="1" y="38" fill="#fff"/><rect width="500" height="36" x="120" y="48" fill="#fff" stroke="#E2E8F0" stroke-width="1.5" rx="18"/><g transform="translate(155, 54)"><rect width="60" height="24" fill="#0D9488" rx="12"/><line x1="16" x2="26" y1="18" y2="6" stroke="#fff" stroke-linecap="round" stroke-width="2"/><circle cx="16" cy="18" r="2" fill="#fff"/><text x="34" y="16" fill="#fff" font-family="Arial, Helvetica, sans-serif" font-size="9" font-weight="bold">Pen</text></g><g transform="translate(230, 54)"><rect width="76" height="24" fill="#F1F5F9" rx="12"/><rect width="12" height="12" x="10" y="6" fill="none" stroke="#64748B" stroke-width="1.5" rx="2"/><text x="30" y="16" fill="#64748B" font-family="Arial, Helvetica, sans-serif" font-size="9">Shapes</text></g><g transform="translate(320, 54)"><rect width="70" height="24" fill="#F1F5F9" rx="12"/><line x1="12" x2="24" y1="16" y2="8" stroke="#64748B" stroke-linecap="round" stroke-width="1.5"/><polygon fill="#64748B" points="22 5 28 8 22 11"/><text x="34" y="16" fill="#64748B" font-family="Arial, Helvetica, sans-serif" font-size="9">Arrow</text></g><g transform="translate(404, 54)"><rect width="80" height="24" fill="#F1F5F9" rx="12"/><rect width="12" height="12" x="10" y="6" fill="#FEF3C7" stroke="#F59E0B" stroke-width=".8" rx="1"/><text x="28" y="16" fill="#64748B" font-family="Arial, Helvetica, sans-serif" font-size="9">Sticky Note</text></g><g transform="translate(498, 54)"><rect width="70" height="24" fill="#F1F5F9" rx="12"/><rect width="14" height="10" x="10" y="8" fill="none" stroke="#64748B" stroke-width="1.5" rx="2"/><text x="30" y="16" fill="#64748B" font-family="Arial, Helvetica, sans-serif" font-size="9">Eraser</text></g><rect width="130" height="60" x="80" y="130" fill="#fff" stroke="#475569" stroke-width="2" rx="8"/><text x="145" y="158" fill="#1E293B" font-family="Arial, Helvetica, sans-serif" font-size="14" font-weight="bold" text-anchor="middle">Draft</text><text x="145" y="176" fill="#64748B" font-family="Arial, Helvetica, sans-serif" font-size="11" text-anchor="middle">proposal</text><line x1="210" x2="270" y1="160" y2="160" stroke="#475569" stroke-linecap="round" stroke-width="2.5"/><polygon fill="#475569" points="268 154 280 160 268 166"/><rect width="130" height="60" x="280" y="130" fill="#fff" stroke="#475569" stroke-width="2" rx="8"/><text x="345" y="158" fill="#1E293B" font-family="Arial, Helvetica, sans-serif" font-size="14" font-weight="bold" text-anchor="middle">Review</text><text x="345" y="176" fill="#64748B" font-family="Arial, Helvetica, sans-serif" font-size="11" text-anchor="middle">with team</text><line x1="410" x2="470" y1="160" y2="160" stroke="#475569" stroke-linecap="round" stroke-width="2.5"/><polygon fill="#475569" points="468 154 480 160 468 166"/><rect width="130" height="60" x="480" y="130" fill="#fff" stroke="#475569" stroke-width="2" rx="8"/><text x="545" y="158" fill="#1E293B" font-family="Arial, Helvetica, sans-serif" font-size="14" font-weight="bold" text-anchor="middle">Ship</text><text x="545" y="176" fill="#64748B" font-family="Arial, Helvetica, sans-serif" font-size="11" text-anchor="middle">to customer</text><g transform="translate(75, 225) rotate(-2)"><rect width="140" height="90" fill="url(#stickyYellow)" stroke="#F59E0B" stroke-width=".8" rx="3"/><text x="14" y="28" fill="#92400E" font-family="Arial, Helvetica, sans-serif" font-size="13" font-weight="bold">Need legal</text><text x="14" y="48" fill="#92400E" font-family="Arial, Helvetica, sans-serif" font-size="13" font-weight="bold">review</text><text x="14" y="72" fill="#B45309" font-family="Arial, Helvetica, sans-serif" font-size="10">before shipping!</text></g><g transform="translate(260, 240) rotate(1.5)"><rect width="130" height="80" fill="url(#stickyPink)" stroke="#EC4899" stroke-width=".8" rx="3"/><text x="14" y="28" fill="#9D174D" font-family="Arial, Helvetica, sans-serif" font-size="13" font-weight="bold">Q2 deadline</text><text x="14" y="50" fill="#BE185D" font-family="Arial, Helvetica, sans-serif" font-size="11">June 30th</text></g><g transform="translate(440, 230) rotate(-1)"><rect width="140" height="85" fill="url(#stickyBlue)" stroke="#3B82F6" stroke-width=".8" rx="3"/><text x="14" y="28" fill="#1E40AF" font-family="Arial, Helvetica, sans-serif" font-size="13" font-weight="bold">Check with</text><text x="14" y="48" fill="#1E40AF" font-family="Arial, Helvetica, sans-serif" font-size="13" font-weight="bold">Sarah</text><text x="14" y="70" fill="#2563EB" font-family="Arial, Helvetica, sans-serif" font-size="10">re: compliance</text></g><ellipse cx="345" cy="160" fill="none" stroke="#EF4444" stroke-dasharray="6 3" stroke-width="2" opacity=".7" rx="85" ry="45"/><path fill="none" stroke="#F59E0B" stroke-linecap="round" stroke-width="2.5" d="M490,186 C510,192 540,190 600,188" opacity=".7"/><text x="420" y="128" fill="#EF4444" font-family="Arial, Helvetica, sans-serif" font-size="20" font-weight="bold">*</text><text x="430" y="128" fill="#EF4444" font-family="Arial, Helvetica, sans-serif" font-size="10">important!</text><text x="620" y="170" fill="#94A3B8" font-family="Arial, Helvetica, sans-serif" font-size="18">?</text><text x="636" y="162" fill="#CBD5E1" font-family="Arial, Helvetica, sans-serif" font-size="14">?</text><rect width="180" height="34" x="540" y="348" fill="#0D9488" rx="17"/><text x="582" y="369" fill="#fff" font-family="Arial, Helvetica, sans-serif" font-size="12" font-weight="bold">Share with Copilot</text></g><rect width="440" height="26" x="30" y="448" fill="#0D9488" opacity=".1" rx="8"/><text x="42" y="465" fill="#0D9488" font-family="Arial, Helvetica, sans-serif" font-size="12" font-weight="bold">Draw, sketch, and add notes — whatever helps you think</text></svg>