<svg xmlns="http://www.w3.org/2000/svg" width="800" height="480" viewBox="0 0 800 480"><defs><linearGradient id="overlayBg" x1="0" x2="0" y1="0" y2="1"><stop offset="0%" stop-color="#fff"/><stop offset="100%" stop-color="#F8FAFB"/></linearGradient></defs><rect width="800" height="480" fill="#F8FAFB" rx="12"/><circle cx="46" cy="28" r="16" fill="#0D9488"/><text x="46" y="33" fill="#fff" font-family="Arial, Helvetica, sans-serif" font-size="14" font-weight="bold" text-anchor="middle">2</text><text x="72" y="33" fill="#334155" font-family="Arial, Helvetica, sans-serif" font-size="15" font-weight="bold">The whiteboard opens in your browser</text><g transform="translate(30, 52)"><rect width="740" height="400" fill="#fff" stroke="#D1D5DB" stroke-width="1.5" rx="10"/><rect width="740" height="38" fill="#F1F5F9" rx="10"/><rect width="740" height="10" x="0" y="28" fill="#F1F5F9"/><circle cx="18" cy="19" r="5.5" fill="#FF5F57"/><circle cx="36" cy="19" r="5.5" fill="#FFBD2E"/><circle cx="54" cy="19" r="5.5" fill="#28C840"/><rect width="580" height="22" x="80" y="8" fill="#fff" stroke="#E2E8F0" stroke-width="1" rx="6"/><text x="96" y="23" fill="#94A3B8" font-family="Arial, Helvetica, sans-serif" font-size="11">file:///Users/.../napkin.html</text><circle cx="90" cy="19" r="3" fill="none" stroke="#94A3B8" stroke-width="1"/><rect width="738" height="361" x="1" y="38" fill="#fff" rx="0"/><rect width="500" height="40" x="120" y="50" fill="#fff" stroke="#E2E8F0" stroke-width="1.5" rx="20"/><g transform="translate(155, 58)"><rect width="60" height="24" fill="#F1F5F9" rx="12"/><line x1="16" x2="26" y1="18" y2="6" stroke="#64748B" stroke-linecap="round" stroke-width="2"/><circle cx="16" cy="18" r="2" fill="#64748B"/><text x="34" y="16" fill="#64748B" font-family="Arial, Helvetica, sans-serif" font-size="9">Pen</text></g><g transform="translate(230, 58)"><rect width="76" height="24" fill="#F1F5F9" rx="12"/><rect width="12" height="12" x="10" y="6" fill="none" stroke="#64748B" stroke-width="1.5" rx="2"/><text x="30" y="16" fill="#64748B" font-family="Arial, Helvetica, sans-serif" font-size="9">Shapes</text></g><g transform="translate(320, 58)"><rect width="70" height="24" fill="#F1F5F9" rx="12"/><line x1="12" x2="24" y1="16" y2="8" stroke="#64748B" stroke-linecap="round" stroke-width="1.5"/><polygon fill="#64748B" points="22 5 28 8 22 11"/><text x="34" y="16" fill="#64748B" font-family="Arial, Helvetica, sans-serif" font-size="9">Arrow</text></g><g transform="translate(404, 58)"><rect width="80" height="24" fill="#F1F5F9" rx="12"/><rect width="12" height="12" x="10" y="6" fill="#FEF3C7" stroke="#F59E0B" stroke-width=".8" rx="1"/><text x="28" y="16" fill="#64748B" font-family="Arial, Helvetica, sans-serif" font-size="9">Sticky Note</text></g><g transform="translate(498, 58)"><rect width="70" height="24" fill="#F1F5F9" rx="12"/><rect width="14" height="10" x="10" y="8" fill="none" stroke="#64748B" stroke-width="1.5" rx="2"/><text x="30" y="16" fill="#64748B" font-family="Arial, Helvetica, sans-serif" font-size="9">Eraser</text></g><rect width="180" height="36" x="540" y="356" fill="#0D9488" rx="18"/><text x="582" y="378" fill="#fff" font-family="Arial, Helvetica, sans-serif" font-size="13" font-weight="bold">Share with Copilot</text><g fill="#F1F5F9" opacity=".8"><circle cx="100" cy="140" r="1.5"/><circle cx="160" cy="140" r="1.5"/><circle cx="220" cy="140" r="1.5"/><circle cx="280" cy="140" r="1.5"/><circle cx="340" cy="140" r="1.5"/><circle cx="400" cy="140" r="1.5"/><circle cx="460" cy="140" r="1.5"/><circle cx="520" cy="140" r="1.5"/><circle cx="580" cy="140" r="1.5"/><circle cx="640" cy="140" r="1.5"/><circle cx="100" cy="200" r="1.5"/><circle cx="160" cy="200" r="1.5"/><circle cx="220" cy="200" r="1.5"/><circle cx="280" cy="200" r="1.5"/><circle cx="340" cy="200" r="1.5"/><circle cx="400" cy="200" r="1.5"/><circle cx="460" cy="200" r="1.5"/><circle cx="520" cy="200" r="1.5"/><circle cx="580" cy="200" r="1.5"/><circle cx="640" cy="200" r="1.5"/><circle cx="100" cy="260" r="1.5"/><circle cx="160" cy="260" r="1.5"/><circle cx="220" cy="260" r="1.5"/><circle cx="280" cy="260" r="1.5"/><circle cx="340" cy="260" r="1.5"/><circle cx="400" cy="260" r="1.5"/><circle cx="460" cy="260" r="1.5"/><circle cx="520" cy="260" r="1.5"/><circle cx="580" cy="260" r="1.5"/><circle cx="640" cy="260" r="1.5"/><circle cx="100" cy="320" r="1.5"/><circle cx="160" cy="320" r="1.5"/><circle cx="220" cy="320" r="1.5"/><circle cx="280" cy="320" r="1.5"/><circle cx="340" cy="320" r="1.5"/><circle cx="400" cy="320" r="1.5"/><circle cx="460" cy="320" r="1.5"/><circle cx="520" cy="320" r="1.5"/><circle cx="580" cy="320" r="1.5"/><circle cx="640" cy="320" r="1.5"/></g><rect width="738" height="361" x="1" y="38" fill="#000" opacity=".15" rx="0"/><rect width="350" height="200" x="195" y="135" fill="#fff" stroke="#E2E8F0" stroke-width="1" rx="16"/><circle cx="370" cy="175" r="22" fill="#F0FDFA"/><line x1="360" x2="380" y1="185" y2="165" stroke="#0D9488" stroke-linecap="round" stroke-width="3"/><circle cx="360" cy="185" r="3" fill="#0D9488"/><text x="370" y="218" fill="#1E293B" font-family="Arial, Helvetica, sans-serif" font-size="18" font-weight="bold" text-anchor="middle">Welcome to your Napkin!</text><text x="370" y="244" fill="#64748B" font-family="Arial, Helvetica, sans-serif" font-size="12" text-anchor="middle">Sketch your ideas here — draw, write, add sticky notes.</text><text x="370" y="262" fill="#64748B" font-family="Arial, Helvetica, sans-serif" font-size="12" text-anchor="middle">When you&apos;re done, click &quot;Share with Copilot&quot;</text><text x="370" y="280" fill="#64748B" font-family="Arial, Helvetica, sans-serif" font-size="12" text-anchor="middle">to send your sketch back to the CLI.</text><rect width="100" height="32" x="320" y="296" fill="#0D9488" rx="16"/><text x="370" y="316" fill="#fff" font-family="Arial, Helvetica, sans-serif" font-size="13" font-weight="bold" text-anchor="middle">Got it!</text></g><rect width="90" height="26" x="608" y="68" fill="#0D9488" opacity=".12" rx="6"/><text x="653" y="85" fill="#0D9488" font-family="Arial, Helvetica, sans-serif" font-size="10" font-weight="bold" text-anchor="middle">Drawing tools</text><path fill="none" stroke="#0D9488" stroke-dasharray="3 2" stroke-width="1.5" d="M608,82 L590,82"/><polygon fill="#0D9488" points="592 79 586 82 592 85"/><path fill="none" stroke="#0D9488" stroke-dasharray="3 2" stroke-width="1.5" d="M726,396 C746,396 756,416 756,436"/><polygon fill="#0D9488" points="753 434 756 442 759 434"/><rect width="104" height="26" x="690" y="444" fill="#0D9488" opacity=".12" rx="6"/><text x="742" y="461" fill="#0D9488" font-family="Arial, Helvetica, sans-serif" font-size="10" font-weight="bold" text-anchor="middle">Send to Copilot</text></svg>